<svg width="762" height="793" viewBox="0 0 762 793" fill="none" xmlns="http://www.w3.org/2000/svg">
<path d="M590.208 0.268911C554.074 4.66891 538.474 9.86891 515.541 25.2022C498.474 36.5356 486.741 47.2022 464.208 72.1356C452.341 85.3356 434.874 104.536 425.541 114.802C416.208 125.069 405.808 136.802 402.341 140.802C392.608 152.402 377.274 169.736 362.874 185.602C337.408 213.602 318.341 234.802 307.941 246.936C302.208 253.602 287.008 270.936 274.208 285.469C261.408 300.002 249.141 314.002 247.008 316.669C244.741 319.336 239.674 325.069 235.674 329.602C231.541 334.002 222.474 344.136 215.541 352.269C208.608 360.269 196.208 374.002 188.208 382.802C180.074 391.602 169.274 403.602 164.208 409.469C151.274 424.536 116.874 462.536 87.6743 494.136C25.8076 560.936 18.0743 572.002 6.74097 610.802C-8.99237 664.269 3.2743 719.202 38.741 754.936C73.941 790.136 124.608 801.869 170.208 785.336C189.541 778.402 217.808 758.802 237.541 738.802C255.941 720.269 294.074 678.936 306.074 664.802C311.941 657.869 323.941 644.002 332.741 634.136C341.674 624.269 357.808 605.736 368.608 592.936C379.408 580.269 390.874 566.669 394.208 562.802C397.541 558.936 407.541 547.069 416.474 536.536C425.408 526.136 436.741 512.802 441.808 507.202C446.741 501.602 460.074 486.269 471.408 473.202C482.608 460.136 495.941 445.202 500.874 440.136C505.808 434.936 515.674 423.602 523.008 414.936C530.208 406.269 543.274 390.669 552.074 380.269C601.941 320.936 603.008 319.469 608.341 302.936C611.274 293.602 611.808 289.469 611.941 273.469C612.208 251.602 610.474 243.469 602.074 226.269C592.474 206.802 569.274 187.069 546.341 179.202C538.474 176.402 535.008 176.136 513.541 176.136C491.808 176.136 488.741 176.402 480.874 179.202C459.541 186.936 442.741 201.202 406.208 242.669C398.474 251.336 388.608 262.536 384.208 267.469C379.808 272.536 362.074 292.936 344.741 313.069C327.408 333.069 311.941 350.669 310.208 352.136C308.608 353.602 302.341 360.536 296.341 367.469C270.208 398.136 221.008 453.202 180.874 496.936C167.274 511.602 155.141 525.336 153.941 527.202C148.608 535.336 152.474 547.602 161.808 551.736C172.474 556.402 174.874 554.936 200.341 526.402C212.608 512.669 228.474 495.469 235.541 488.136C248.208 474.802 286.608 431.736 332.741 378.936C346.208 363.469 364.474 342.669 373.541 332.802C382.474 322.936 391.941 312.402 394.341 309.469C396.741 306.536 402.741 299.869 407.541 294.802C412.341 289.602 423.674 277.069 432.874 266.802C470.208 224.936 479.808 216.669 496.608 211.469C507.141 208.136 524.074 208.002 534.341 210.936C578.608 223.869 593.674 278.136 562.608 312.802C559.008 316.802 552.741 324.269 548.608 329.469C535.274 346.136 499.674 387.469 466.874 424.402C449.274 444.136 429.008 467.202 421.941 475.602C414.874 484.002 403.541 497.069 396.874 504.802C377.541 527.202 342.074 568.669 336.208 575.602C333.274 579.202 324.874 588.802 317.541 597.069C310.074 605.336 298.074 619.336 290.741 628.136C283.274 636.936 271.941 649.869 265.408 656.802C258.874 663.869 245.674 678.269 236.074 688.802C195.274 733.736 175.941 748.136 146.208 755.602C105.541 765.869 63.141 743.336 42.8743 700.402C27.141 667.202 33.141 616.669 57.0076 582.136C63.6743 572.402 69.8076 565.336 93.541 539.336C104.608 527.469 120.341 510.136 128.608 500.936C137.008 491.736 152.074 475.069 162.341 464.136C179.808 445.202 225.141 394.402 264.741 349.736C274.474 338.536 288.741 322.536 296.341 314.136C309.808 299.069 357.541 245.602 384.074 215.602C391.408 207.202 401.408 196.136 406.208 190.936C411.008 185.602 426.341 168.269 440.208 152.136C477.541 109.336 490.074 95.3356 509.541 76.1356C529.674 56.1356 542.874 47.3356 563.541 40.5356C575.941 36.2689 576.741 36.2689 600.874 36.1356C623.674 36.1356 626.474 36.4022 638.474 39.7356C661.141 46.1356 677.941 56.6689 696.608 76.0022C705.808 85.7356 709.674 90.9356 714.608 100.936C724.874 121.336 726.741 130.269 726.741 160.136C726.741 181.869 726.341 186.936 723.808 195.736C719.941 209.869 713.674 224.536 707.274 234.402C702.074 242.402 665.008 287.469 635.541 321.736C627.808 330.536 613.408 347.336 603.541 358.936C593.674 370.402 578.608 387.736 570.208 397.336C561.808 407.069 551.008 419.602 546.208 425.336C532.741 441.602 508.608 469.736 486.074 495.602C474.741 508.536 457.408 528.536 447.541 540.136C437.674 551.736 421.541 570.536 411.674 582.002C401.808 593.469 388.208 609.336 381.408 617.469C374.474 625.469 363.141 638.669 356.074 646.802C342.208 662.669 329.541 678.002 325.941 683.336C319.808 692.402 327.408 706.802 339.141 708.402C343.274 708.936 345.408 708.269 350.474 704.802C353.941 702.536 357.141 699.469 357.541 698.136C357.941 696.669 359.674 694.536 361.274 693.202C363.008 691.869 367.674 686.536 371.808 681.469C375.941 676.269 382.474 668.402 386.474 664.002C418.741 627.069 427.141 617.202 438.874 603.469C483.141 551.469 497.808 534.269 511.541 518.669C519.941 508.936 534.608 491.736 543.941 480.402C553.274 468.936 568.341 451.602 577.408 441.869C593.274 424.536 606.474 409.336 629.941 380.936C636.341 373.202 644.874 363.336 648.874 358.802C652.874 354.269 660.474 345.602 665.541 339.469C670.741 333.336 680.608 321.736 687.541 313.736C700.341 299.069 710.208 287.336 723.674 270.669C741.274 248.802 753.941 221.469 759.141 193.602C762.341 176.669 762.208 142.802 759.008 127.469C748.474 76.6689 723.941 44.1356 676.208 17.4689C666.074 11.7356 650.474 6.53558 634.208 3.46891C621.274 0.935578 598.474 -0.664422 590.208 0.268911Z" fill="black"/>
</svg>
