<svg width="2628" height="807" viewBox="0 0 2628 807" fill="none" xmlns="http://www.w3.org/2000/svg">
<path d="M590.208 0.269155C554.074 4.66916 538.474 9.86915 515.541 25.2025C498.474 36.5358 486.741 47.2025 464.208 72.1358C452.341 85.3358 434.874 104.536 425.541 114.802C416.208 125.069 405.808 136.802 402.341 140.802C392.608 152.402 377.274 169.736 362.874 185.602C337.408 213.602 318.341 234.802 307.941 246.936C302.208 253.602 287.008 270.936 274.208 285.469C261.408 300.002 249.141 314.002 247.008 316.669C244.741 319.336 239.674 325.069 235.674 329.602C231.541 334.002 222.474 344.136 215.541 352.269C208.608 360.269 196.208 374.002 188.208 382.802C180.074 391.602 169.274 403.602 164.208 409.469C151.274 424.536 116.874 462.536 87.6743 494.136C25.8076 560.936 18.0743 572.002 6.74097 610.802C-8.99237 664.269 3.2743 719.202 38.741 754.936C73.941 790.136 124.608 801.869 170.208 785.336C189.541 778.402 217.808 758.802 237.541 738.802C255.941 720.269 294.074 678.936 306.074 664.802C311.941 657.869 323.941 644.002 332.741 634.136C341.674 624.269 357.808 605.736 368.608 592.936C379.408 580.269 390.874 566.669 394.208 562.802C397.541 558.936 407.541 547.069 416.474 536.536C425.408 526.136 436.741 512.802 441.808 507.202C446.741 501.602 460.074 486.269 471.408 473.202C482.608 460.136 495.941 445.202 500.874 440.136C505.808 434.936 515.674 423.602 523.008 414.936C530.208 406.269 543.274 390.669 552.074 380.269C601.941 320.936 603.008 319.469 608.341 302.936C611.274 293.602 611.808 289.469 611.941 273.469C612.208 251.602 610.474 243.469 602.074 226.269C592.474 206.802 569.274 187.069 546.341 179.202C538.474 176.402 535.008 176.136 513.541 176.136C491.808 176.136 488.741 176.402 480.874 179.202C459.541 186.936 442.741 201.202 406.208 242.669C398.474 251.336 388.608 262.536 384.208 267.469C379.808 272.536 362.074 292.936 344.741 313.069C327.408 333.069 311.941 350.669 310.208 352.136C308.608 353.602 302.341 360.536 296.341 367.469C270.208 398.136 221.008 453.202 180.874 496.936C167.274 511.602 155.141 525.336 153.941 527.202C148.608 535.336 152.474 547.602 161.808 551.736C172.474 556.402 174.874 554.936 200.341 526.402C212.608 512.669 228.474 495.469 235.541 488.136C248.208 474.802 286.608 431.736 332.741 378.936C346.208 363.469 364.474 342.669 373.541 332.802C382.474 322.936 391.941 312.402 394.341 309.469C396.741 306.536 402.741 299.869 407.541 294.802C412.341 289.602 423.674 277.069 432.874 266.802C470.208 224.936 479.808 216.669 496.608 211.469C507.141 208.136 524.074 208.002 534.341 210.936C578.608 223.869 593.674 278.136 562.608 312.802C559.008 316.802 552.741 324.269 548.608 329.469C535.274 346.136 499.674 387.469 466.874 424.402C449.274 444.136 429.008 467.202 421.941 475.602C414.874 484.002 403.541 497.069 396.874 504.802C377.541 527.202 342.074 568.669 336.208 575.602C333.274 579.202 324.874 588.802 317.541 597.069C310.074 605.336 298.074 619.336 290.741 628.136C283.274 636.936 271.941 649.869 265.408 656.802C258.874 663.869 245.674 678.269 236.074 688.802C195.274 733.736 175.941 748.136 146.208 755.602C105.541 765.869 63.141 743.336 42.8743 700.402C27.141 667.202 33.141 616.669 57.0076 582.136C63.6743 572.402 69.8076 565.336 93.541 539.336C104.608 527.469 120.341 510.136 128.608 500.936C137.008 491.736 152.074 475.069 162.341 464.136C179.808 445.202 225.141 394.402 264.741 349.736C274.474 338.536 288.741 322.536 296.341 314.136C309.808 299.069 357.541 245.602 384.074 215.602C391.408 207.202 401.408 196.136 406.208 190.936C411.008 185.602 426.341 168.269 440.208 152.136C477.541 109.336 490.074 95.3358 509.541 76.1358C529.674 56.1358 542.874 47.3358 563.541 40.5358C575.941 36.2692 576.741 36.2692 600.874 36.1358C623.674 36.1358 626.474 36.4025 638.474 39.7358C661.141 46.1358 677.941 56.6692 696.608 76.0025C705.808 85.7358 709.674 90.9358 714.608 100.936C724.874 121.336 726.741 130.269 726.741 160.136C726.741 181.869 726.341 186.936 723.808 195.736C719.941 209.869 713.674 224.536 707.274 234.402C702.074 242.402 665.008 287.469 635.541 321.736C627.808 330.536 613.408 347.336 603.541 358.936C593.674 370.402 578.608 387.736 570.208 397.336C561.808 407.069 551.008 419.602 546.208 425.336C532.741 441.602 508.608 469.736 486.074 495.602C474.741 508.536 457.408 528.536 447.541 540.136C437.674 551.736 421.541 570.536 411.674 582.002C401.808 593.469 388.208 609.336 381.408 617.469C374.474 625.469 363.141 638.669 356.074 646.802C342.208 662.669 329.541 678.002 325.941 683.336C319.808 692.402 327.408 706.802 339.141 708.402C343.274 708.936 345.408 708.269 350.474 704.802C353.941 702.536 357.141 699.469 357.541 698.136C357.941 696.669 359.674 694.536 361.274 693.202C363.008 691.869 367.674 686.536 371.808 681.469C375.941 676.269 382.474 668.402 386.474 664.002C418.741 627.069 427.141 617.202 438.874 603.469C483.141 551.469 497.808 534.269 511.541 518.669C519.941 508.936 534.608 491.736 543.941 480.402C553.274 468.936 568.341 451.602 577.408 441.869C593.274 424.536 606.474 409.336 629.941 380.936C636.341 373.202 644.874 363.336 648.874 358.802C652.874 354.269 660.474 345.602 665.541 339.469C670.741 333.336 680.608 321.736 687.541 313.736C700.341 299.069 710.208 287.336 723.674 270.669C741.274 248.802 753.941 221.469 759.141 193.602C762.341 176.669 762.208 142.802 759.008 127.469C748.474 76.6692 723.941 44.1358 676.208 17.4692C666.074 11.7358 650.474 6.53582 634.208 3.46916C621.274 0.935822 598.474 -0.664178 590.208 0.269155Z" fill="black"/>
<path d="M848.699 517.245H795.574C794.059 508.533 791.265 500.815 787.193 494.091C783.121 487.273 778.055 481.497 771.994 476.762C765.934 472.027 759.021 468.476 751.256 466.108C743.585 463.646 735.299 462.415 726.398 462.415C710.583 462.415 696.568 466.393 684.352 474.347C672.136 482.207 662.572 493.76 655.659 509.006C648.746 524.158 645.29 542.671 645.29 564.546C645.29 586.8 648.746 605.55 655.659 620.796C662.667 635.947 672.231 647.406 684.352 655.171C696.568 662.841 710.536 666.677 726.256 666.677C734.968 666.677 743.112 665.54 750.688 663.268C758.358 660.9 765.223 657.444 771.284 652.898C777.439 648.353 782.6 642.766 786.767 636.137C791.028 629.508 793.964 621.932 795.574 613.41L848.699 613.694C846.71 627.519 842.402 640.493 835.773 652.614C829.239 664.735 820.669 675.436 810.062 684.716C799.456 693.902 787.051 701.099 772.847 706.307C758.642 711.421 742.875 713.978 725.545 713.978C699.977 713.978 677.155 708.059 657.08 696.222C637.004 684.385 621.189 667.292 609.636 644.944C598.083 622.595 592.307 595.796 592.307 564.546C592.307 533.201 598.131 506.402 609.778 484.148C621.426 461.8 637.288 444.707 657.364 432.87C677.439 421.033 700.167 415.114 725.545 415.114C741.739 415.114 756.795 417.387 770.716 421.932C784.636 426.478 797.042 433.154 807.932 441.961C818.822 450.673 827.771 461.374 834.778 474.063C841.881 486.658 846.521 501.052 848.699 517.245ZM946.107 419.091V710H894.686V419.091H946.107ZM998.983 710V491.819H1050.4V710H998.983ZM1024.84 460.853C1016.69 460.853 1009.68 458.154 1003.81 452.756C997.941 447.264 995.006 440.682 995.006 433.012C995.006 425.247 997.941 418.665 1003.81 413.268C1009.68 407.775 1016.69 405.029 1024.84 405.029C1033.07 405.029 1040.08 407.775 1045.86 413.268C1051.73 418.665 1054.66 425.247 1054.66 433.012C1054.66 440.682 1051.73 447.264 1045.86 452.756C1040.08 458.154 1033.07 460.853 1024.84 460.853ZM1103.28 791.819V491.819H1153.85V527.898H1156.83C1159.48 522.595 1163.22 516.961 1168.05 510.995C1172.88 504.934 1179.42 499.773 1187.65 495.512C1195.89 491.156 1206.4 488.978 1219.19 488.978C1236.04 488.978 1251.24 493.286 1264.79 501.904C1278.42 510.427 1289.22 523.069 1297.17 539.83C1305.22 556.497 1309.25 576.951 1309.25 601.194C1309.25 625.152 1305.32 645.512 1297.46 662.273C1289.6 679.035 1278.9 691.819 1265.35 700.625C1251.81 709.432 1236.47 713.836 1219.33 713.836C1206.83 713.836 1196.46 711.752 1188.22 707.586C1179.98 703.419 1173.36 698.4 1168.34 692.529C1163.41 686.563 1159.58 680.929 1156.83 675.625H1154.7V791.819H1103.28ZM1153.71 600.91C1153.71 615.019 1155.69 627.377 1159.67 637.983C1163.74 648.59 1169.57 656.875 1177.14 662.841C1184.81 668.713 1194.09 671.648 1204.98 671.648C1216.35 671.648 1225.87 668.618 1233.54 662.557C1241.21 656.402 1246.98 648.021 1250.87 637.415C1254.84 626.714 1256.83 614.546 1256.83 600.91C1256.83 587.368 1254.89 575.341 1251.01 564.83C1247.12 554.319 1241.35 546.08 1233.68 540.114C1226.01 534.148 1216.44 531.165 1204.98 531.165C1194 531.165 1184.67 534.054 1177 539.83C1169.33 545.607 1163.51 553.703 1159.53 564.12C1155.65 574.536 1153.71 586.8 1153.71 600.91ZM1377.82 791.819C1370.81 791.819 1364.32 791.25 1358.36 790.114C1352.49 789.072 1347.8 787.841 1344.3 786.421L1356.23 746.364C1363.71 748.542 1370.38 749.584 1376.26 749.489C1382.13 749.394 1387.29 747.548 1391.74 743.949C1396.28 740.446 1400.12 734.574 1403.24 726.336L1407.65 714.546L1328.53 491.819H1383.07L1433.36 656.591H1435.63L1486.06 491.819H1540.74L1453.39 736.421C1449.31 747.974 1443.92 757.87 1437.19 766.108C1430.47 774.442 1422.23 780.786 1412.48 785.143C1402.82 789.593 1391.27 791.819 1377.82 791.819ZM1748.77 549.489L1701.89 554.603C1700.57 549.868 1698.25 545.417 1694.93 541.25C1691.71 537.084 1687.36 533.722 1681.87 531.165C1676.37 528.608 1669.65 527.33 1661.7 527.33C1651 527.33 1642 529.65 1634.71 534.29C1627.51 538.93 1623.96 544.944 1624.05 552.33C1623.96 558.675 1626.28 563.836 1631.01 567.813C1635.84 571.79 1643.8 575.057 1654.88 577.614L1692.09 585.569C1712.74 590.019 1728.08 597.074 1738.12 606.733C1748.25 616.393 1753.36 629.035 1753.46 644.66C1753.36 658.391 1749.34 670.512 1741.38 681.023C1733.52 691.44 1722.59 699.584 1708.57 705.455C1694.56 711.326 1678.46 714.262 1660.28 714.262C1633.57 714.262 1612.07 708.675 1595.79 697.5C1579.5 686.232 1569.79 670.559 1566.67 650.483L1616.81 645.654C1619.08 655.502 1623.91 662.936 1631.3 667.955C1638.68 672.974 1648.3 675.483 1660.13 675.483C1672.35 675.483 1682.15 672.974 1689.54 667.955C1697.02 662.936 1700.76 656.733 1700.76 649.347C1700.76 643.097 1698.34 637.936 1693.51 633.864C1688.78 629.792 1681.39 626.667 1671.36 624.489L1634.14 616.677C1613.21 612.321 1597.73 604.982 1587.69 594.66C1577.65 584.243 1572.68 571.08 1572.78 555.171C1572.68 541.724 1576.33 530.076 1583.71 520.228C1591.19 510.285 1601.56 502.614 1614.82 497.216C1628.17 491.724 1643.56 488.978 1660.99 488.978C1686.55 488.978 1706.68 494.423 1721.36 505.313C1736.13 516.203 1745.27 530.929 1748.77 549.489ZM1891.03 714.262C1869.25 714.262 1850.55 709.48 1834.92 699.915C1819.39 690.351 1807.41 677.141 1798.98 660.285C1790.65 643.334 1786.48 623.826 1786.48 601.762C1786.48 579.603 1790.74 560.048 1799.27 543.097C1807.79 526.052 1819.82 512.794 1835.35 503.324C1850.97 493.76 1869.44 488.978 1890.74 488.978C1908.45 488.978 1924.13 492.245 1937.76 498.779C1951.49 505.218 1962.43 514.357 1970.57 526.194C1978.72 537.936 1983.36 551.667 1984.49 567.387H1935.35C1933.36 556.875 1928.62 548.116 1921.14 541.108C1913.76 534.006 1903.86 530.455 1891.45 530.455C1880.94 530.455 1871.71 533.296 1863.76 538.978C1855.8 544.565 1849.6 552.614 1845.15 563.125C1840.79 573.637 1838.61 586.232 1838.61 600.91C1838.61 615.777 1840.79 628.561 1845.15 639.262C1849.5 649.868 1855.61 658.059 1863.47 663.836C1871.43 669.518 1880.75 672.358 1891.45 672.358C1899.03 672.358 1905.8 670.938 1911.77 668.097C1917.83 665.161 1922.89 660.947 1926.97 655.455C1931.04 649.963 1933.83 643.286 1935.35 635.427H1984.49C1983.26 650.862 1978.72 664.546 1970.86 676.478C1963 688.315 1952.3 697.595 1938.76 704.319C1925.21 710.947 1909.3 714.262 1891.03 714.262ZM2078.14 582.16V710H2026.72V419.091H2077V528.893H2079.56C2084.67 516.582 2092.58 506.875 2103.28 499.773C2114.08 492.576 2127.81 488.978 2144.47 488.978C2159.62 488.978 2172.83 492.15 2184.1 498.495C2195.37 504.839 2204.08 514.12 2210.24 526.336C2216.49 538.552 2219.62 553.466 2219.62 571.08V710H2168.19V579.035C2168.19 564.357 2164.41 552.946 2156.83 544.802C2149.35 536.563 2138.84 532.444 2125.3 532.444C2116.21 532.444 2108.06 534.432 2100.87 538.41C2093.76 542.292 2088.18 547.927 2084.1 555.313C2080.13 562.699 2078.14 571.648 2078.14 582.16ZM2334.81 714.404C2320.99 714.404 2308.54 711.942 2297.46 707.018C2286.47 701.999 2277.76 694.612 2271.32 684.858C2264.97 675.105 2261.8 663.078 2261.8 648.779C2261.8 636.468 2264.08 626.288 2268.62 618.239C2273.17 610.19 2279.37 603.75 2287.23 598.921C2295.09 594.091 2303.94 590.446 2313.79 587.983C2323.73 585.427 2334.01 583.58 2344.62 582.444C2357.4 581.118 2367.77 579.934 2375.72 578.893C2383.68 577.756 2389.45 576.052 2393.05 573.779C2396.75 571.411 2398.59 567.766 2398.59 562.841V561.989C2398.59 551.288 2395.42 543.002 2389.08 537.131C2382.73 531.26 2373.59 528.324 2361.66 528.324C2349.07 528.324 2339.08 531.071 2331.69 536.563C2324.4 542.055 2319.47 548.542 2316.92 556.023L2268.9 549.205C2272.69 535.947 2278.94 524.868 2287.65 515.966C2296.37 506.97 2307.02 500.247 2319.62 495.796C2332.21 491.25 2346.13 488.978 2361.38 488.978C2371.89 488.978 2382.35 490.209 2392.77 492.671C2403.19 495.133 2412.7 499.205 2421.32 504.887C2429.94 510.474 2436.85 518.097 2442.06 527.756C2447.36 537.415 2450.01 549.489 2450.01 563.978V710H2400.58V680.029H2398.88C2395.75 686.09 2391.35 691.771 2385.67 697.074C2380.08 702.283 2373.02 706.497 2364.5 709.716C2356.07 712.841 2346.18 714.404 2334.81 714.404ZM2348.17 676.62C2358.49 676.62 2367.44 674.584 2375.01 670.512C2382.59 666.345 2388.41 660.853 2392.48 654.035C2396.65 647.216 2398.73 639.783 2398.73 631.733V606.023C2397.12 607.349 2394.38 608.58 2390.5 609.716C2386.71 610.853 2382.45 611.847 2377.71 612.699C2372.98 613.552 2368.29 614.309 2363.65 614.972C2359.01 615.635 2354.98 616.203 2351.58 616.677C2343.9 617.718 2337.04 619.423 2330.98 621.79C2324.92 624.158 2320.14 627.472 2316.63 631.733C2313.13 635.9 2311.38 641.298 2311.38 647.927C2311.38 657.396 2314.83 664.546 2321.75 669.375C2328.66 674.205 2337.47 676.62 2348.17 676.62ZM2610.67 491.819V531.591H2485.24V491.819H2610.67ZM2516.21 439.546H2567.63V644.375C2567.63 651.288 2568.67 656.591 2570.75 660.285C2572.93 663.883 2575.77 666.345 2579.27 667.671C2582.78 668.997 2586.66 669.66 2590.92 669.66C2594.14 669.66 2597.08 669.423 2599.73 668.949C2602.47 668.476 2604.56 668.05 2605.98 667.671L2614.64 707.87C2611.9 708.817 2607.97 709.858 2602.85 710.995C2597.83 712.131 2591.68 712.794 2584.39 712.983C2571.51 713.362 2559.91 711.421 2549.59 707.16C2539.26 702.804 2531.07 696.08 2525.01 686.989C2519.05 677.898 2516.11 666.535 2516.21 652.898V439.546Z" fill="black"/>
</svg>
